<mxfile host="Electron" modified="2024-02-26T17:50:10.740Z" agent="Mozilla/5.0 (Windows NT 10.0; Win64; x64) AppleWebKit/537.36 (KHTML, like Gecko) draw.io/23.1.5 Chrome/120.0.6099.109 Electron/28.1.0 Safari/537.36" etag="V8hjz_4SDWUcnVhx-4x4" version="23.1.5" type="device">
  <diagram name="entité_relation" id="TV70KDXsq81beHYy1QG9">
    <mxGraphModel dx="2103" dy="1775" grid="1" gridSize="10" guides="1" tooltips="1" connect="1" arrows="1" fold="1" page="1" pageScale="1" pageWidth="827" pageHeight="1169" math="0" shadow="0">
      <root>
        <mxCell id="0" />
        <mxCell id="1" parent="0" />
        <mxCell id="zFC4XnWtaqs70QeSSI5z-1" value="Condidat&amp;nbsp;" style="rounded=0;whiteSpace=wrap;html=1;" vertex="1" parent="1">
          <mxGeometry x="300" y="290" width="120" height="60" as="geometry" />
        </mxCell>
        <mxCell id="zFC4XnWtaqs70QeSSI5z-3" value="agent consultant&amp;nbsp;" style="rounded=0;whiteSpace=wrap;html=1;" vertex="1" parent="1">
          <mxGeometry x="280" y="20" width="120" height="60" as="geometry" />
        </mxCell>
        <mxCell id="zFC4XnWtaqs70QeSSI5z-4" value="test_langue&amp;nbsp;" style="rounded=0;whiteSpace=wrap;html=1;" vertex="1" parent="1">
          <mxGeometry x="50" y="620" width="120" height="60" as="geometry" />
        </mxCell>
        <mxCell id="zFC4XnWtaqs70QeSSI5z-5" value="Nom_agent" style="ellipse;whiteSpace=wrap;html=1;aspect=fixed;" vertex="1" parent="1">
          <mxGeometry x="70" width="80" height="80" as="geometry" />
        </mxCell>
        <mxCell id="zFC4XnWtaqs70QeSSI5z-6" value="Id_agent" style="ellipse;whiteSpace=wrap;html=1;aspect=fixed;" vertex="1" parent="1">
          <mxGeometry x="150" y="-90" width="80" height="80" as="geometry" />
        </mxCell>
        <mxCell id="zFC4XnWtaqs70QeSSI5z-8" value="Prenom_agent" style="ellipse;whiteSpace=wrap;html=1;aspect=fixed;" vertex="1" parent="1">
          <mxGeometry x="140" y="90" width="80" height="80" as="geometry" />
        </mxCell>
        <mxCell id="zFC4XnWtaqs70QeSSI5z-9" value="" style="endArrow=none;html=1;rounded=0;exitX=0;exitY=0.5;exitDx=0;exitDy=0;" edge="1" parent="1" source="zFC4XnWtaqs70QeSSI5z-3">
          <mxGeometry width="50" height="50" relative="1" as="geometry">
            <mxPoint x="350" y="50" as="sourcePoint" />
            <mxPoint x="230" y="-40" as="targetPoint" />
          </mxGeometry>
        </mxCell>
        <mxCell id="zFC4XnWtaqs70QeSSI5z-10" value="" style="endArrow=none;html=1;rounded=0;exitX=0;exitY=0.5;exitDx=0;exitDy=0;entryX=1;entryY=0.5;entryDx=0;entryDy=0;" edge="1" parent="1" source="zFC4XnWtaqs70QeSSI5z-3" target="zFC4XnWtaqs70QeSSI5z-5">
          <mxGeometry width="50" height="50" relative="1" as="geometry">
            <mxPoint x="270" y="85" as="sourcePoint" />
            <mxPoint x="220" y="-5" as="targetPoint" />
          </mxGeometry>
        </mxCell>
        <mxCell id="zFC4XnWtaqs70QeSSI5z-11" value="" style="endArrow=none;html=1;rounded=0;" edge="1" parent="1" target="zFC4XnWtaqs70QeSSI5z-8">
          <mxGeometry width="50" height="50" relative="1" as="geometry">
            <mxPoint x="280" y="50" as="sourcePoint" />
            <mxPoint x="210" y="20" as="targetPoint" />
          </mxGeometry>
        </mxCell>
        <mxCell id="zFC4XnWtaqs70QeSSI5z-12" value="IUC" style="ellipse;whiteSpace=wrap;html=1;aspect=fixed;" vertex="1" parent="1">
          <mxGeometry x="520" y="20" width="80" height="80" as="geometry" />
        </mxCell>
        <mxCell id="zFC4XnWtaqs70QeSSI5z-13" value="Nom" style="ellipse;whiteSpace=wrap;html=1;aspect=fixed;" vertex="1" parent="1">
          <mxGeometry x="560" y="90" width="80" height="80" as="geometry" />
        </mxCell>
        <mxCell id="zFC4XnWtaqs70QeSSI5z-14" value="Passport" style="ellipse;whiteSpace=wrap;html=1;aspect=fixed;" vertex="1" parent="1">
          <mxGeometry x="150" y="200" width="80" height="80" as="geometry" />
        </mxCell>
        <mxCell id="zFC4XnWtaqs70QeSSI5z-15" value="Prenom" style="ellipse;whiteSpace=wrap;html=1;aspect=fixed;" vertex="1" parent="1">
          <mxGeometry x="580" y="170" width="80" height="80" as="geometry" />
        </mxCell>
        <mxCell id="zFC4XnWtaqs70QeSSI5z-16" value="date_naissance" style="ellipse;whiteSpace=wrap;html=1;aspect=fixed;" vertex="1" parent="1">
          <mxGeometry x="580" y="250" width="80" height="80" as="geometry" />
        </mxCell>
        <mxCell id="zFC4XnWtaqs70QeSSI5z-17" value="statu_matrimonial" style="ellipse;whiteSpace=wrap;html=1;aspect=fixed;" vertex="1" parent="1">
          <mxGeometry x="150" y="290" width="80" height="80" as="geometry" />
        </mxCell>
        <mxCell id="zFC4XnWtaqs70QeSSI5z-18" value="num_tel&amp;nbsp;" style="ellipse;whiteSpace=wrap;html=1;aspect=fixed;" vertex="1" parent="1">
          <mxGeometry x="500" y="390" width="80" height="80" as="geometry" />
        </mxCell>
        <mxCell id="zFC4XnWtaqs70QeSSI5z-19" value="pays_origine" style="ellipse;whiteSpace=wrap;html=1;aspect=fixed;" vertex="1" parent="1">
          <mxGeometry x="540" y="320" width="80" height="80" as="geometry" />
        </mxCell>
        <mxCell id="zFC4XnWtaqs70QeSSI5z-20" value="" style="endArrow=none;html=1;rounded=0;entryX=0;entryY=1;entryDx=0;entryDy=0;" edge="1" parent="1" target="zFC4XnWtaqs70QeSSI5z-12">
          <mxGeometry width="50" height="50" relative="1" as="geometry">
            <mxPoint x="420" y="320" as="sourcePoint" />
            <mxPoint x="470" y="270" as="targetPoint" />
          </mxGeometry>
        </mxCell>
        <mxCell id="zFC4XnWtaqs70QeSSI5z-21" value="" style="endArrow=none;html=1;rounded=0;entryX=0;entryY=0.5;entryDx=0;entryDy=0;exitX=1;exitY=0.5;exitDx=0;exitDy=0;" edge="1" parent="1" source="zFC4XnWtaqs70QeSSI5z-1" target="zFC4XnWtaqs70QeSSI5z-13">
          <mxGeometry width="50" height="50" relative="1" as="geometry">
            <mxPoint x="428.28" y="350" as="sourcePoint" />
            <mxPoint x="540.28" y="118" as="targetPoint" />
          </mxGeometry>
        </mxCell>
        <mxCell id="zFC4XnWtaqs70QeSSI5z-22" value="" style="endArrow=none;html=1;rounded=0;entryX=0;entryY=0.5;entryDx=0;entryDy=0;exitX=1;exitY=0.5;exitDx=0;exitDy=0;" edge="1" parent="1" source="zFC4XnWtaqs70QeSSI5z-1" target="zFC4XnWtaqs70QeSSI5z-15">
          <mxGeometry width="50" height="50" relative="1" as="geometry">
            <mxPoint x="440" y="382" as="sourcePoint" />
            <mxPoint x="552" y="150" as="targetPoint" />
          </mxGeometry>
        </mxCell>
        <mxCell id="zFC4XnWtaqs70QeSSI5z-23" value="" style="endArrow=none;html=1;rounded=0;entryX=0;entryY=0.5;entryDx=0;entryDy=0;entryPerimeter=0;exitX=1;exitY=0.5;exitDx=0;exitDy=0;" edge="1" parent="1" source="zFC4XnWtaqs70QeSSI5z-17" target="zFC4XnWtaqs70QeSSI5z-1">
          <mxGeometry width="50" height="50" relative="1" as="geometry">
            <mxPoint x="240" y="585" as="sourcePoint" />
            <mxPoint x="290" y="320" as="targetPoint" />
          </mxGeometry>
        </mxCell>
        <mxCell id="zFC4XnWtaqs70QeSSI5z-24" value="" style="endArrow=none;html=1;rounded=0;entryX=0;entryY=0.5;entryDx=0;entryDy=0;exitX=1;exitY=0.5;exitDx=0;exitDy=0;" edge="1" parent="1" source="zFC4XnWtaqs70QeSSI5z-14" target="zFC4XnWtaqs70QeSSI5z-1">
          <mxGeometry width="50" height="50" relative="1" as="geometry">
            <mxPoint x="320" y="585" as="sourcePoint" />
            <mxPoint x="432" y="353" as="targetPoint" />
          </mxGeometry>
        </mxCell>
        <mxCell id="zFC4XnWtaqs70QeSSI5z-25" value="" style="endArrow=none;html=1;rounded=0;entryX=0;entryY=0.5;entryDx=0;entryDy=0;" edge="1" parent="1" target="zFC4XnWtaqs70QeSSI5z-19">
          <mxGeometry width="50" height="50" relative="1" as="geometry">
            <mxPoint x="420" y="320" as="sourcePoint" />
            <mxPoint x="732" y="280" as="targetPoint" />
          </mxGeometry>
        </mxCell>
        <mxCell id="zFC4XnWtaqs70QeSSI5z-26" value="" style="endArrow=none;html=1;rounded=0;entryX=0;entryY=0.5;entryDx=0;entryDy=0;" edge="1" parent="1" target="zFC4XnWtaqs70QeSSI5z-16">
          <mxGeometry width="50" height="50" relative="1" as="geometry">
            <mxPoint x="420" y="320" as="sourcePoint" />
            <mxPoint x="592" y="230" as="targetPoint" />
          </mxGeometry>
        </mxCell>
        <mxCell id="zFC4XnWtaqs70QeSSI5z-27" value="" style="endArrow=none;html=1;rounded=0;exitX=0;exitY=0;exitDx=0;exitDy=0;" edge="1" parent="1" source="zFC4XnWtaqs70QeSSI5z-18">
          <mxGeometry width="50" height="50" relative="1" as="geometry">
            <mxPoint x="630" y="596" as="sourcePoint" />
            <mxPoint x="420" y="320" as="targetPoint" />
          </mxGeometry>
        </mxCell>
        <mxCell id="zFC4XnWtaqs70QeSSI5z-28" value="marié&amp;nbsp;" style="rhombus;whiteSpace=wrap;html=1;" vertex="1" parent="1">
          <mxGeometry x="280" y="400" width="150" height="80" as="geometry" />
        </mxCell>
        <mxCell id="zFC4XnWtaqs70QeSSI5z-29" value="" style="endArrow=none;html=1;rounded=0;exitX=0;exitY=0;exitDx=0;exitDy=0;" edge="1" parent="1" source="zFC4XnWtaqs70QeSSI5z-28">
          <mxGeometry width="50" height="50" relative="1" as="geometry">
            <mxPoint x="270" y="410" as="sourcePoint" />
            <mxPoint x="318" y="350" as="targetPoint" />
          </mxGeometry>
        </mxCell>
        <mxCell id="zFC4XnWtaqs70QeSSI5z-31" value="" style="endArrow=none;html=1;rounded=0;exitX=0;exitY=0;exitDx=0;exitDy=0;" edge="1" parent="1">
          <mxGeometry width="50" height="50" relative="1" as="geometry">
            <mxPoint x="390" y="420" as="sourcePoint" />
            <mxPoint x="390" y="350" as="targetPoint" />
          </mxGeometry>
        </mxCell>
        <mxCell id="zFC4XnWtaqs70QeSSI5z-32" value="E_E" style="ellipse;whiteSpace=wrap;html=1;aspect=fixed;" vertex="1" parent="1">
          <mxGeometry x="-110" y="480" width="80" height="80" as="geometry" />
        </mxCell>
        <mxCell id="zFC4XnWtaqs70QeSSI5z-33" value="E_O" style="ellipse;whiteSpace=wrap;html=1;aspect=fixed;" vertex="1" parent="1">
          <mxGeometry x="-140" y="560" width="80" height="80" as="geometry" />
        </mxCell>
        <mxCell id="zFC4XnWtaqs70QeSSI5z-34" value="C_E" style="ellipse;whiteSpace=wrap;html=1;aspect=fixed;" vertex="1" parent="1">
          <mxGeometry x="-140" y="640" width="80" height="80" as="geometry" />
        </mxCell>
        <mxCell id="zFC4XnWtaqs70QeSSI5z-35" value="listning&amp;nbsp;" style="ellipse;whiteSpace=wrap;html=1;aspect=fixed;" vertex="1" parent="1">
          <mxGeometry x="240" y="620" width="80" height="80" as="geometry" />
        </mxCell>
        <mxCell id="zFC4XnWtaqs70QeSSI5z-36" value="C_O" style="ellipse;whiteSpace=wrap;html=1;aspect=fixed;" vertex="1" parent="1">
          <mxGeometry x="-110" y="720" width="80" height="80" as="geometry" />
        </mxCell>
        <mxCell id="zFC4XnWtaqs70QeSSI5z-37" value="reading" style="ellipse;whiteSpace=wrap;html=1;aspect=fixed;" vertex="1" parent="1">
          <mxGeometry x="220" y="700" width="80" height="80" as="geometry" />
        </mxCell>
        <mxCell id="zFC4XnWtaqs70QeSSI5z-38" value="speaking" style="ellipse;whiteSpace=wrap;html=1;aspect=fixed;" vertex="1" parent="1">
          <mxGeometry x="240" y="540" width="80" height="80" as="geometry" />
        </mxCell>
        <mxCell id="zFC4XnWtaqs70QeSSI5z-39" value="Writing" style="ellipse;whiteSpace=wrap;html=1;aspect=fixed;" vertex="1" parent="1">
          <mxGeometry x="210" y="465" width="80" height="80" as="geometry" />
        </mxCell>
        <mxCell id="zFC4XnWtaqs70QeSSI5z-41" value="" style="endArrow=none;html=1;rounded=0;exitX=1.018;exitY=0.393;exitDx=0;exitDy=0;exitPerimeter=0;" edge="1" parent="1" source="zFC4XnWtaqs70QeSSI5z-4">
          <mxGeometry width="50" height="50" relative="1" as="geometry">
            <mxPoint x="170" y="570" as="sourcePoint" />
            <mxPoint x="220" y="530" as="targetPoint" />
          </mxGeometry>
        </mxCell>
        <mxCell id="zFC4XnWtaqs70QeSSI5z-42" value="" style="endArrow=none;html=1;rounded=0;exitX=1;exitY=0.5;exitDx=0;exitDy=0;entryX=0;entryY=0.5;entryDx=0;entryDy=0;" edge="1" parent="1" source="zFC4XnWtaqs70QeSSI5z-4" target="zFC4XnWtaqs70QeSSI5z-38">
          <mxGeometry width="50" height="50" relative="1" as="geometry">
            <mxPoint x="180" y="620" as="sourcePoint" />
            <mxPoint x="230" y="570" as="targetPoint" />
          </mxGeometry>
        </mxCell>
        <mxCell id="zFC4XnWtaqs70QeSSI5z-43" value="" style="endArrow=none;html=1;rounded=0;entryX=0;entryY=0.5;entryDx=0;entryDy=0;" edge="1" parent="1" target="zFC4XnWtaqs70QeSSI5z-35">
          <mxGeometry width="50" height="50" relative="1" as="geometry">
            <mxPoint x="170" y="650" as="sourcePoint" />
            <mxPoint x="240" y="620" as="targetPoint" />
          </mxGeometry>
        </mxCell>
        <mxCell id="zFC4XnWtaqs70QeSSI5z-44" value="" style="endArrow=none;html=1;rounded=0;exitX=1;exitY=0.5;exitDx=0;exitDy=0;entryX=0;entryY=0;entryDx=0;entryDy=0;" edge="1" parent="1" source="zFC4XnWtaqs70QeSSI5z-4" target="zFC4XnWtaqs70QeSSI5z-37">
          <mxGeometry width="50" height="50" relative="1" as="geometry">
            <mxPoint x="190" y="720" as="sourcePoint" />
            <mxPoint x="240" y="670" as="targetPoint" />
          </mxGeometry>
        </mxCell>
        <mxCell id="zFC4XnWtaqs70QeSSI5z-45" value="" style="endArrow=none;html=1;rounded=0;entryX=0;entryY=0.5;entryDx=0;entryDy=0;exitX=1;exitY=0.5;exitDx=0;exitDy=0;" edge="1" parent="1" source="zFC4XnWtaqs70QeSSI5z-32" target="zFC4XnWtaqs70QeSSI5z-4">
          <mxGeometry width="50" height="50" relative="1" as="geometry">
            <mxPoint x="10" y="605" as="sourcePoint" />
            <mxPoint x="60" y="555" as="targetPoint" />
          </mxGeometry>
        </mxCell>
        <mxCell id="zFC4XnWtaqs70QeSSI5z-46" value="" style="endArrow=none;html=1;rounded=0;exitX=1;exitY=0.5;exitDx=0;exitDy=0;" edge="1" parent="1" source="zFC4XnWtaqs70QeSSI5z-34">
          <mxGeometry width="50" height="50" relative="1" as="geometry">
            <mxPoint x="-10" y="710" as="sourcePoint" />
            <mxPoint x="50" y="650" as="targetPoint" />
          </mxGeometry>
        </mxCell>
        <mxCell id="zFC4XnWtaqs70QeSSI5z-47" value="" style="endArrow=none;html=1;rounded=0;entryX=0;entryY=0.5;entryDx=0;entryDy=0;exitX=1.028;exitY=0.405;exitDx=0;exitDy=0;exitPerimeter=0;" edge="1" parent="1" source="zFC4XnWtaqs70QeSSI5z-36" target="zFC4XnWtaqs70QeSSI5z-4">
          <mxGeometry width="50" height="50" relative="1" as="geometry">
            <mxPoint x="-10" y="730" as="sourcePoint" />
            <mxPoint x="60" y="720" as="targetPoint" />
          </mxGeometry>
        </mxCell>
        <mxCell id="zFC4XnWtaqs70QeSSI5z-48" value="" style="endArrow=none;html=1;rounded=0;exitX=1;exitY=0.5;exitDx=0;exitDy=0;" edge="1" parent="1" source="zFC4XnWtaqs70QeSSI5z-33">
          <mxGeometry width="50" height="50" relative="1" as="geometry">
            <mxPoint x="-40" y="665" as="sourcePoint" />
            <mxPoint x="50" y="650" as="targetPoint" />
          </mxGeometry>
        </mxCell>
        <mxCell id="zFC4XnWtaqs70QeSSI5z-49" value="suivre" style="rhombus;whiteSpace=wrap;html=1;" vertex="1" parent="1">
          <mxGeometry x="300" y="140" width="80" height="80" as="geometry" />
        </mxCell>
        <mxCell id="zFC4XnWtaqs70QeSSI5z-50" value="" style="endArrow=none;html=1;rounded=0;exitX=0.5;exitY=0;exitDx=0;exitDy=0;" edge="1" parent="1" source="zFC4XnWtaqs70QeSSI5z-49">
          <mxGeometry width="50" height="50" relative="1" as="geometry">
            <mxPoint x="330" y="150" as="sourcePoint" />
            <mxPoint x="340" y="80" as="targetPoint" />
          </mxGeometry>
        </mxCell>
        <mxCell id="zFC4XnWtaqs70QeSSI5z-51" value="" style="endArrow=none;html=1;rounded=0;exitX=0.5;exitY=0;exitDx=0;exitDy=0;entryX=0.5;entryY=1;entryDx=0;entryDy=0;" edge="1" parent="1" source="zFC4XnWtaqs70QeSSI5z-1" target="zFC4XnWtaqs70QeSSI5z-49">
          <mxGeometry width="50" height="50" relative="1" as="geometry">
            <mxPoint x="390" y="140" as="sourcePoint" />
            <mxPoint x="440" y="90" as="targetPoint" />
          </mxGeometry>
        </mxCell>
        <mxCell id="zFC4XnWtaqs70QeSSI5z-52" value="obtenu" style="rhombus;whiteSpace=wrap;html=1;" vertex="1" parent="1">
          <mxGeometry x="50" y="420" width="110" height="80" as="geometry" />
        </mxCell>
        <mxCell id="zFC4XnWtaqs70QeSSI5z-53" value="" style="endArrow=none;html=1;rounded=0;entryX=0;entryY=1;entryDx=0;entryDy=0;" edge="1" parent="1" target="zFC4XnWtaqs70QeSSI5z-1">
          <mxGeometry width="50" height="50" relative="1" as="geometry">
            <mxPoint x="130" y="440" as="sourcePoint" />
            <mxPoint x="180" y="390" as="targetPoint" />
          </mxGeometry>
        </mxCell>
        <mxCell id="zFC4XnWtaqs70QeSSI5z-54" value="" style="endArrow=none;html=1;rounded=0;entryX=0;entryY=1;entryDx=0;entryDy=0;exitX=0.5;exitY=0;exitDx=0;exitDy=0;" edge="1" parent="1" source="zFC4XnWtaqs70QeSSI5z-4" target="zFC4XnWtaqs70QeSSI5z-52">
          <mxGeometry width="50" height="50" relative="1" as="geometry">
            <mxPoint x="50" y="590" as="sourcePoint" />
            <mxPoint x="100" y="540" as="targetPoint" />
          </mxGeometry>
        </mxCell>
        <mxCell id="zFC4XnWtaqs70QeSSI5z-55" value="1.n" style="text;html=1;align=center;verticalAlign=middle;whiteSpace=wrap;rounded=0;" vertex="1" parent="1">
          <mxGeometry x="325" y="110" width="60" height="30" as="geometry" />
        </mxCell>
        <mxCell id="zFC4XnWtaqs70QeSSI5z-56" value="1.1" style="text;html=1;align=center;verticalAlign=middle;whiteSpace=wrap;rounded=0;" vertex="1" parent="1">
          <mxGeometry x="380" y="350" width="40" height="30" as="geometry" />
        </mxCell>
        <mxCell id="zFC4XnWtaqs70QeSSI5z-57" value="0.n" style="text;html=1;align=center;verticalAlign=middle;whiteSpace=wrap;rounded=0;" vertex="1" parent="1">
          <mxGeometry x="290" y="350" width="40" height="30" as="geometry" />
        </mxCell>
        <mxCell id="zFC4XnWtaqs70QeSSI5z-58" value="1.n" style="text;html=1;align=center;verticalAlign=middle;whiteSpace=wrap;rounded=0;" vertex="1" parent="1">
          <mxGeometry x="100" y="400" width="60" height="30" as="geometry" />
        </mxCell>
        <mxCell id="zFC4XnWtaqs70QeSSI5z-59" value="1.1" style="text;html=1;align=center;verticalAlign=middle;whiteSpace=wrap;rounded=0;" vertex="1" parent="1">
          <mxGeometry x="50" y="585" width="60" height="30" as="geometry" />
        </mxCell>
        <mxCell id="zFC4XnWtaqs70QeSSI5z-60" value="1.1" style="text;html=1;align=center;verticalAlign=middle;whiteSpace=wrap;rounded=0;" vertex="1" parent="1">
          <mxGeometry x="325" y="210" width="60" height="30" as="geometry" />
        </mxCell>
      </root>
    </mxGraphModel>
  </diagram>
</mxfile>
